<svg width="24" height="25" viewBox="0 0 24 25" fill="none" xmlns="http://www.w3.org/2000/svg">
<path d="M10.0002 6.5C10.5525 6.5 11.0002 6.05228 11.0002 5.5C11.0002 4.94772 10.5525 4.5 10.0002 4.5V6.5ZM20 14.5C20 13.9477 19.5523 13.5 19 13.5C18.4477 13.5 18 13.9477 18 14.5H20ZM17.9078 19.282L17.4538 18.391L17.9078 19.282ZM18.7822 18.408L17.8912 17.954L18.7822 18.408ZM5.21799 18.408L4.32698 18.862H4.32698L5.21799 18.408ZM6.0918 19.282L6.54579 18.391H6.54579L6.0918 19.282ZM6.0918 5.71799L6.54579 6.60899L6.0918 5.71799ZM5.21799 6.59204L6.10899 7.04603L5.21799 6.59204ZM19 9.5C19 10.0523 19.4477 10.5 20 10.5C20.5523 10.5 21 10.0523 21 9.5H19ZM20 4.5H21C21 3.94772 20.5523 3.5 20 3.5V4.5ZM15 3.5C14.4477 3.5 14 3.94772 14 4.5C14 5.05228 14.4477 5.5 15 5.5V3.5ZM12.2929 10.7929C11.9024 11.1834 11.9024 11.8166 12.2929 12.2071C12.6834 12.5976 13.3166 12.5976 13.7071 12.2071L12.2929 10.7929ZM10.0002 4.5H8.2002V6.5H10.0002V4.5ZM4 8.69995V16.3H6V8.69995H4ZM8.2002 20.5H15.8002V18.5H8.2002V20.5ZM20 16.3V14.5H18V16.3H20ZM15.8002 20.5C16.3438 20.5 16.8115 20.5008 17.1951 20.4694C17.5904 20.4371 17.9835 20.3657 18.3618 20.173L17.4538 18.391C17.4043 18.4162 17.3036 18.4539 17.0321 18.4761C16.7489 18.4992 16.3767 18.5 15.8002 18.5V20.5ZM18 16.3C18 16.8767 17.9993 17.2489 17.9762 17.5323C17.954 17.8041 17.9164 17.9047 17.8912 17.954L19.6732 18.862C19.8661 18.4835 19.9373 18.0902 19.9696 17.6949C20.0008 17.3113 20 16.8435 20 16.3H18ZM18.3618 20.173C18.9257 19.8856 19.3854 19.427 19.6732 18.862L17.8912 17.954C17.7956 18.1417 17.6425 18.2948 17.4538 18.391L18.3618 20.173ZM4 16.3C4 16.8435 3.99922 17.3113 4.03057 17.695C4.06287 18.0904 4.13418 18.4836 4.32698 18.862L6.10899 17.954C6.08381 17.9046 6.04613 17.8039 6.02393 17.5322C6.00078 17.2488 6 16.8765 6 16.3H4ZM8.2002 18.5C7.62367 18.5 7.25127 18.4992 6.96782 18.4761C6.69598 18.4538 6.59519 18.4161 6.54579 18.391L5.63781 20.173C6.01623 20.3658 6.40959 20.4371 6.80496 20.4694C7.18873 20.5008 7.65662 20.5 8.2002 20.5V18.5ZM4.32698 18.862C4.61452 19.4264 5.07317 19.8853 5.63781 20.173L6.54579 18.391C6.35778 18.2952 6.20494 18.1424 6.10899 17.954L4.32698 18.862ZM8.2002 4.5C7.65663 4.5 7.18874 4.49922 6.80498 4.53057C6.40962 4.56286 6.01624 4.63416 5.63781 4.82698L6.54579 6.60899C6.59517 6.58383 6.69595 6.54613 6.9678 6.52393C7.25126 6.50078 7.62365 6.5 8.2002 6.5V4.5ZM6 8.69995C6 8.1234 6.00078 7.75114 6.02393 7.46783C6.04612 7.1962 6.0838 7.09549 6.10899 7.04603L4.32698 6.13805C4.13419 6.51642 4.06287 6.90961 4.03057 7.30495C3.99922 7.68861 4 8.1564 4 8.69995H6ZM5.63781 4.82698C5.07306 5.11473 4.61447 5.57382 4.32698 6.13805L6.10899 7.04603C6.205 6.85761 6.35788 6.70474 6.54579 6.60899L5.63781 4.82698ZM21 9.5V4.5H19V9.5H21ZM20 3.5H15V5.5H20V3.5ZM13.7071 12.2071L20.7071 5.20711L19.2929 3.79289L12.2929 10.7929L13.7071 12.2071Z" fill="#767676"/>
</svg>
